<svg width="29" height="29" viewBox="0 0 29 29" fill="none" xmlns="http://www.w3.org/2000/svg">
<path d="M3.625 11.3777C3.625 10.9314 3.85219 10.5126 4.23469 10.254L13.6597 3.88017C14.1628 3.53994 14.8372 3.53994 15.3403 3.88017L24.7653 10.254C25.1478 10.5126 25.375 10.9314 25.375 11.3777V23.3066C25.375 24.4489 24.4012 25.375 23.2 25.375H5.8C4.59878 25.375 3.625 24.4489 3.625 23.3066V11.3777Z" fill="#416954"/>
<path d="M10.875 25.375V17.1013C10.875 16.3398 11.5242 15.7224 12.325 15.7224H16.675C17.4758 15.7224 18.125 16.3398 18.125 17.1013V25.375M13.6597 3.88017L4.23469 10.254C3.85219 10.5126 3.625 10.9314 3.625 11.3777V23.3066C3.625 24.4489 4.59878 25.375 5.8 25.375H23.2C24.4012 25.375 25.375 24.4489 25.375 23.3066V11.3777C25.375 10.9314 25.1478 10.5126 24.7653 10.254L15.3403 3.88017C14.8372 3.53994 14.1628 3.53994 13.6597 3.88017Z" stroke="white" stroke-linecap="round"/>
</svg>
