<svg width="24" height="24" viewBox="0 0 24 24" fill="none" xmlns="http://www.w3.org/2000/svg">
<path d="M2.40002 1.99274C1.84774 1.99274 1.40002 2.44045 1.40002 2.99274C1.40002 3.54502 1.84774 3.99274 2.40002 3.99274V1.99274ZM4.69256 2.99274L5.65779 2.73132C5.53973 2.29542 5.14417 1.99274 4.69256 1.99274V2.99274ZM8.41793 16.748L7.45271 17.0094C7.58298 17.4904 8.0475 17.8021 8.54197 17.7402L8.41793 16.748ZM19.8806 15.3151L20.0047 16.3074C20.4293 16.2543 20.7732 15.9369 20.8599 15.5177L19.8806 15.3151ZM21.6 7.00468L22.5793 7.20728C22.6402 6.91277 22.5654 6.60647 22.3755 6.37325C22.1856 6.14004 21.9008 6.00468 21.6 6.00468V7.00468ZM5.77913 7.00468L4.8139 7.26609V7.26609L5.77913 7.00468ZM2.40002 3.99274H4.69256V1.99274H2.40002V3.99274ZM8.54197 17.7402L20.0047 16.3074L19.7566 14.3228L8.2939 15.7557L8.54197 17.7402ZM20.8599 15.5177L22.5793 7.20728L20.6208 6.80207L18.9014 15.1125L20.8599 15.5177ZM3.72733 3.25415L4.8139 7.26609L6.74435 6.74326L5.65779 2.73132L3.72733 3.25415ZM4.8139 7.26609L7.45271 17.0094L9.38316 16.4865L6.74435 6.74326L4.8139 7.26609ZM21.6 6.00468H5.77913V8.00468H21.6V6.00468ZM11 20.5C11 20.7762 10.7762 21 10.5 21V23C11.8807 23 13 21.8807 13 20.5H11ZM10.5 21C10.2239 21 10 20.7762 10 20.5H8.00002C8.00002 21.8807 9.11931 23 10.5 23V21ZM10 20.5C10 20.2239 10.2239 20 10.5 20V18C9.11931 18 8.00002 19.1193 8.00002 20.5H10ZM10.5 20C10.7762 20 11 20.2239 11 20.5H13C13 19.1193 11.8807 18 10.5 18V20ZM19 20.5C19 20.7762 18.7762 21 18.5 21V23C19.8807 23 21 21.8807 21 20.5H19ZM18.5 21C18.2239 21 18 20.7762 18 20.5H16C16 21.8807 17.1193 23 18.5 23V21ZM18 20.5C18 20.2239 18.2239 20 18.5 20V18C17.1193 18 16 19.1193 16 20.5H18ZM18.5 20C18.7762 20 19 20.2239 19 20.5H21C21 19.1193 19.8807 18 18.5 18V20Z" fill="#416954"/>
</svg>
