<svg width="27" height="27" viewBox="0 0 27 27" fill="none" xmlns="http://www.w3.org/2000/svg">
<path d="M14.7429 4.55734C14.37 4.5195 13.9902 4.5 13.6048 4.5C8.57634 4.5 4.5 7.81836 4.5 11.9118C4.5 16.0052 8.57634 19.3235 13.6048 19.3235C14.3907 19.3235 15.1534 19.2425 15.881 19.09L19.2952 22.5V17.7353C20.828 16.6988 22.0598 15.1414 22.5 13.5M22.5 8.4375C22.5 9.9908 21.2408 11.25 19.6875 11.25C18.1342 11.25 16.875 9.9908 16.875 8.4375C16.875 6.8842 18.1342 5.625 19.6875 5.625C21.2408 5.625 22.5 6.8842 22.5 8.4375Z" stroke="#416954" stroke-width="2" stroke-linecap="round" stroke-linejoin="round"/>
</svg>
