<svg width="22" height="22" viewBox="0 0 22 22" fill="none" xmlns="http://www.w3.org/2000/svg">
<path fill-rule="evenodd" clip-rule="evenodd" d="M21.3 10.9C21.3 16.6438 16.6438 21.3 10.9 21.3C5.15624 21.3 0.5 16.6438 0.5 10.9C0.5 5.15624 5.15624 0.5 10.9 0.5C16.6438 0.5 21.3 5.15624 21.3 10.9ZM14.6254 7.35529C14.6254 5.37115 12.9504 3.75 10.9003 3.75C8.85024 3.75 7.17522 5.37115 7.17522 7.35529C7.17522 9.33943 8.85024 10.9606 10.9003 10.9606C12.9504 10.9606 14.6254 9.33943 14.6254 7.35529Z" fill="#416954"/>
<path d="M3.75 18.7C4.2496 18.1405 6.58947 15.5656 7.27517 15.5656H14.5253C15.5189 15.5656 17.5473 17.7 18.05 18.4523M21.3 10.9C21.3 16.6438 16.6438 21.3 10.9 21.3C5.15624 21.3 0.5 16.6438 0.5 10.9C0.5 5.15624 5.15624 0.5 10.9 0.5C16.6438 0.5 21.3 5.15624 21.3 10.9ZM14.6254 7.35529C14.6254 5.37115 12.9504 3.75 10.9003 3.75C8.85024 3.75 7.17522 5.37115 7.17522 7.35529C7.17522 9.33943 8.85024 10.9606 10.9003 10.9606C12.9504 10.9606 14.6254 9.33943 14.6254 7.35529Z" stroke="white"/>
</svg>
